<svg xmlns="http://www.w3.org/2000/svg" width="48.95mm" height="57.32mm" viewBox="0 0 138.77 162.48">
  <g id="Capa_2" data-name="Capa 2">
    <g id="Capa_1-2" data-name="Capa 1">
      <path d="M138.77,115.78l-8.81-6.7,0,0-5.93-4.34a66.41,66.41,0,1,0-109.35,0L8.77,109l0,0L0,115.78l9.42,4.7L6.1,128.74l9-.68,2,11.07,11.28-8.33,8.15-6A66.2,66.2,0,0,0,58,132.65l11.41,29.83L80.8,132.65a66.28,66.28,0,0,0,21.44-7.83l8.15,6,11.28,8.33,2-11.07,9,.68-3.31-8.26Zm-27.1-87.54-7.2,7.21-5-5,7.14-7.14A58,58,0,0,1,111.67,28.24Zm-42.29-19a57.33,57.33,0,0,1,31.53,9.68l-8.59,8.59H73.25l-3.87-3.87-3.86,3.87H46.45l-8.59-8.59A57.3,57.3,0,0,1,69.38,9.26Zm-37.2,14,7.14,7.14-5,5-7.2-7.21A56.64,56.64,0,0,1,32.18,23.28ZM12.23,66.86a57.3,57.3,0,0,1,10.43-33l9,9v22.3l-4.95,5A44.24,44.24,0,0,0,36,87.74L23.14,100.57A57.37,57.37,0,0,1,12.23,66.86ZM32.81,111a56.79,56.79,0,0,1-5.15-4.9L41,92.74a44.2,44.2,0,0,0,5.85,4.2Zm36.57,13.49a57.4,57.4,0,0,1-30.81-9.23l15-15a43.1,43.1,0,0,0,31.65,0l15,15A57.41,57.41,0,0,1,69.38,124.46ZM106,111l-14-14a44.86,44.86,0,0,0,5.85-4.2l13.33,13.33A58.14,58.14,0,0,1,106,111Zm9.67-10.4L102.8,87.74A44.24,44.24,0,0,0,112,70.12l-5-5V42.87l9-9a57.57,57.57,0,0,1-.48,66.74Z" style="fill: #1d1d1b"/>
      <polygon points="79.17 74.27 72.15 67.83 94.24 49.7 94.24 41.83 69.38 41.83 44.53 41.83 44.53 49.35 67.04 67.83 60.03 74.27 44.53 58.78 44.53 78.18 52.01 70.7 54.31 77.49 52.01 79.79 52.01 88.07 56.49 92.56 69.38 75.54 82.27 92.56 86.76 88.07 86.76 79.79 84.46 77.49 86.76 70.7 94.24 78.18 94.24 59.2 79.17 74.27" style="fill: #6a888b"/>
    </g>
  </g>
</svg>
