<svg xmlns="http://www.w3.org/2000/svg" width="109.9mm" height="109.9mm" viewBox="0 0 311.54 311.54">
  <g id="Capa_2" data-name="Capa 2">
    <g id="Capa_1-2" data-name="Capa 1">
      <circle cx="155.77" cy="155.77" r="155.77" style="fill: #151a24"/>
      <path d="M125.22,79.23C113.33,100,105.33,98,105.33,98a55.12,55.12,0,0,0,4.75,4.75C127.09,97.61,125.22,87.73,125.22,79.23Z" style="fill: #fff"/>
      <path d="M207.42,98s-8,2-19.89-18.76c0,8.5-1.88,18.38,15.14,23.51A55.12,55.12,0,0,0,207.42,98Z" style="fill: #fff"/>
      <path d="M214.68,91S198,83.1,195,67.59h-7.57S193.91,97.61,214.68,91Z" style="fill: #fff"/>
      <g>
        <polygon points="207.88 242.91 212.66 237.97 219.38 244.49 232.62 230.83 232.38 215.81 239.47 208.49 239.87 233.82 219.63 254.7 207.88 242.91" style="fill: #fff"/>
        <polygon points="242.71 103.45 237.77 98.67 244.29 91.95 230.63 78.72 215.61 78.95 208.3 71.87 233.62 71.47 254.5 91.71 242.71 103.45" style="fill: #fff"/>
        <polygon points="103.26 68.63 98.48 73.56 91.76 67.05 78.52 80.71 78.76 95.73 71.67 103.04 71.27 77.72 91.52 56.84 103.26 68.63" style="fill: #fff"/>
        <polygon points="68.43 208.08 73.37 212.86 66.85 219.58 80.51 232.82 95.53 232.58 102.84 239.67 77.52 240.07 56.64 219.82 68.43 208.08" style="fill: #fff"/>
      </g>
      <g>
        <path d="M135.72,63.42h-5.64V77.66c0,10.65,13.42,17.47,19.77,8a8.25,8.25,0,0,0,1.45-2.94l1,.9L156,87.31l3.65-3.64,1-.9a8.37,8.37,0,0,0,1.46,2.94c6.34,9.42,19.77,2.6,19.77-8V63.42h-5.64s.57,8.19-8.34,8.19-7.9-9.1-7.9-9.1h33.4V54.18H118.56v8.33H152s1,9.1-7.91,9.1S135.72,63.42,135.72,63.42Zm27.34,21-2.3-1.7,0,0Zm-14.16,0,2.29-1.72,0,0Z" style="fill: #fff"/>
        <path d="M124.89,67.79h-7.57c-3,15.51-19.64,23.39-19.64,23.39C118.45,97.81,124.89,67.79,124.89,67.79Z" style="fill: #fff"/>
        <polygon points="185.14 39.4 176.57 30.83 168.44 38.96 155.98 26.5 143.53 38.96 135.4 30.83 126.83 39.4 118.56 30.51 118.56 48.28 155.98 48.28 193.41 48.28 193.41 30.51 185.14 39.4" style="fill: #fff"/>
        <path d="M146.62,94.21A24.4,24.4,0,0,0,143,96a23.75,23.75,0,0,0,3.59,1.8,25.31,25.31,0,0,0,9.08,2h.66a25.44,25.44,0,0,0,9.09-2A24.14,24.14,0,0,0,168.94,96a24.85,24.85,0,0,0-3.49-1.75,5.45,5.45,0,0,0-5.15-3.69,5.38,5.38,0,0,0-3.94,1.7h-.66a5.44,5.44,0,0,0-9.08,2Z" style="fill: #fff"/>
        <path d="M156,256.32h37.43V248H160s-1-10.09,7.9-10.09,8.34,7.19,8.34,7.19h4.36l1.28,2v-12.9h0v-1.35a12.33,12.33,0,0,0-.27-2.53,27.45,27.45,0,0,0-1.05-4.82c-2.56-8-9.3-22.83-24.3-22.83-16.53,0-22.88,15.76-25,23.58a27.28,27.28,0,0,0-.62,2.93,12.68,12.68,0,0,0-.55,3.67v12.25h0l0,2,1.13-2h4.51s-.58-7.19,8.33-7.19S152,248,152,248h-33.4v8.33Zm-9.46-40.06A24.14,24.14,0,0,1,143,214.5a23.59,23.59,0,0,1,3.49-1.75,25.43,25.43,0,0,1,9.09-2h.66a25.2,25.2,0,0,1,9.07,2,24.24,24.24,0,0,1,3.6,1.79,23.6,23.6,0,0,1-3.6,1.8,5.44,5.44,0,0,1-9.07,1.95h-.66a5.44,5.44,0,0,1-9.09-2Zm4.67,11.68-2.29-1.72,7.08-4.36,7.08,4.36-2.28,1.72L156,223.3Z" style="fill: #fff"/>
        <path d="M239.63,167.18c0-8.9,9.09-7.9,9.09-7.9v33.4h8.33V117.83h-8.33v33.4s-9.09,1-9.09-7.91,8.19-8.33,8.19-8.33v-5.64H233.57c-10.64,0-17.46,13.42-8,19.77a8.25,8.25,0,0,0,2.94,1.45l-.89,1-3.65,3.64,3.65,3.65.89,1a8.37,8.37,0,0,0-2.94,1.46c-9.41,6.34-2.59,19.77,8,19.77h14.25v-5.64S239.63,176.09,239.63,167.18Zm-11.06-16.73,0,0-1.7-2.31Zm0,9.58,0,0-1.72,2.28Z" style="fill: #fff"/>
        <path d="M231.81,186.41c-20.76,11.88-18.76,19.89-18.76,19.89a55.12,55.12,0,0,1-4.75-4.75C213.43,184.53,223.31,186.41,231.81,186.41Z" style="fill: #fff"/>
        <path d="M243.45,186.35v7.56c-15.51,3-23.39,19.64-23.39,19.64C213.43,192.79,243.45,186.35,243.45,186.35Z" style="fill: #fff"/>
        <polygon points="271.84 126.1 280.41 134.67 272.28 142.8 284.74 155.25 272.28 167.71 280.41 175.84 271.84 184.41 280.72 192.68 262.96 192.68 262.96 155.25 262.96 117.83 280.72 117.83 271.84 126.1" style="fill: #fff"/>
        <path d="M213.05,104.21s-2,8,18.76,19.89c-8.5,0-18.38,1.87-23.51-15.14A55.12,55.12,0,0,1,213.05,104.21Z" style="fill: #fff"/>
        <path d="M220.06,97s7.88,16.64,23.39,19.64v7.57S213.43,117.72,220.06,97Z" style="fill: #fff"/>
        <path d="M217,164.61a23.6,23.6,0,0,1-1.8,3.6,24.24,24.24,0,0,1-1.79-3.6,25.2,25.2,0,0,1-2-9.07v-.66a25.38,25.38,0,0,1,2-9.09,23.59,23.59,0,0,1,1.75-3.49,24.14,24.14,0,0,1,1.76,3.49,5.43,5.43,0,0,1,2,9.09c0,.12,0,.25,0,.37s0,.19,0,.29a5.42,5.42,0,0,1-1.95,9.07Z" style="fill: #fff"/>
        <g>
          <polygon points="155.98 262.23 126.83 262.23 126.83 279.99 133.27 271.11 139.95 279.68 146.28 271.55 155.98 284 165.69 271.55 172.02 279.68 178.7 271.11 185.14 279.99 185.14 262.23 155.98 262.23" style="fill: #fff"/>
          <path d="M124.83,231.08c0-8.5,1.87-18.39-15.14-23.51a55.12,55.12,0,0,0-4.75,4.75S112.94,210.32,124.83,231.08Z" style="fill: #fff"/>
          <path d="M97.68,219.32s16.64,7.88,19.64,23.4h7.57S118.45,212.69,97.68,219.32Z" style="fill: #fff"/>
          <path d="M187.14,231.08C199,210.32,207,212.32,207,212.32a55.12,55.12,0,0,0-4.75-4.75C185.26,212.69,187.14,222.58,187.14,231.08Z" style="fill: #fff"/>
          <path d="M187.08,242.72h7.57c3-15.52,19.63-23.4,19.63-23.4C193.52,212.69,187.08,242.72,187.08,242.72Z" style="fill: #fff"/>
          <polygon points="40.13 126.1 31.56 134.67 39.69 142.8 27.23 155.25 39.69 167.71 31.56 175.84 40.13 184.41 31.24 192.68 49.01 192.68 49.01 155.25 49.01 117.83 31.24 117.83 40.13 126.1" style="fill: #fff"/>
          <path d="M98.92,206.3a54,54,0,0,0,4.75-4.76c-5.13-17-15-15.13-23.52-15.13C100.92,198.29,98.92,206.3,98.92,206.3Z" style="fill: #fff"/>
          <path d="M68.52,186.35v7.56c15.51,3,23.39,19.64,23.39,19.64C98.54,192.79,68.52,186.35,68.52,186.35Z" style="fill: #fff"/>
          <path d="M80.15,124.1c8.51,0,18.39,1.87,23.52-15.14a55.12,55.12,0,0,0-4.75-4.75S100.92,112.21,80.15,124.1Z" style="fill: #fff"/>
          <path d="M91.91,97S84,113.59,68.52,116.59v7.57S98.54,117.72,91.91,97Z" style="fill: #fff"/>
        </g>
        <path d="M54.91,192.68h8.34v-33.4s10.09-1,10.09,7.9-7.19,8.34-7.19,8.34V180l-2,1.13,2,0v0H78.4a12.24,12.24,0,0,0,3.66-.56A26.26,26.26,0,0,0,85,180c7.83-2.14,23.59-8.5,23.59-25,0-15-14.79-21.75-22.83-24.3a28.41,28.41,0,0,0-4.82-1.06,12.41,12.41,0,0,0-2.53-.26H64.15l2,1.28V135s7.19-.58,7.19,8.33-10.09,7.91-10.09,7.91v-33.4H54.91v37.42h0Zm36.38-33.11a5.38,5.38,0,0,1,1.7-3.94c0-.13,0-.25,0-.38V155a5.44,5.44,0,0,1,2-9.08,23.75,23.75,0,0,1,1.8-3.59,24.4,24.4,0,0,1,1.79,3.59,25.31,25.31,0,0,1,2,9.08v.66a25.65,25.65,0,0,1-2,9.09,24.85,24.85,0,0,1-1.75,3.49A24.14,24.14,0,0,1,95,164.72,5.46,5.46,0,0,1,91.29,159.57Zm-3.35-4.32-4.64-4.8L85,148.17l4.36,7.08L85,162.33l-1.72-2.28Z" style="fill: #fff"/>
        <circle cx="155.98" cy="21.3" r="4.84" style="fill: #fff"/>
        <circle cx="18.3" cy="155.82" r="4.84" style="fill: #fff"/>
        <circle cx="293.24" cy="155.82" r="4.84" style="fill: #fff"/>
        <circle cx="155.98" cy="290.24" r="4.84" style="fill: #fff"/>
      </g>
      <g>
        <polygon points="152.77 123.3 130.27 100.8 130.11 100.96 121.77 100.96 152.77 131.95 152.77 123.3" style="fill: #fff"/>
        <polygon points="181.43 100.96 181.27 100.8 158.77 123.3 158.77 131.95 189.76 100.96 181.43 100.96" style="fill: #fff"/>
      </g>
      <g>
        <polygon points="124.61 158.66 102.11 181.16 102.28 181.32 102.28 189.66 133.27 158.66 124.61 158.66" style="fill: #fff"/>
        <polygon points="102.28 130 102.11 130.16 124.61 152.66 133.27 152.66 102.28 121.67 102.28 130" style="fill: #fff"/>
      </g>
      <g>
        <polygon points="159.98 186.82 182.48 209.32 182.64 209.16 190.98 209.16 159.98 178.16 159.98 186.82" style="fill: #fff"/>
        <polygon points="131.32 209.16 131.48 209.32 153.98 186.82 153.98 178.16 122.98 209.16 131.32 209.16" style="fill: #fff"/>
      </g>
      <g>
        <polygon points="188.13 151.45 210.63 128.95 210.47 128.79 210.47 120.45 179.48 151.45 188.13 151.45" style="fill: #fff"/>
        <polygon points="210.47 180.11 210.63 179.95 188.13 157.45 179.48 157.45 210.47 188.45 210.47 180.11" style="fill: #fff"/>
      </g>
    </g>
  </g>
</svg>
